<?xml version="1.0" encoding="UTF-8" standalone="no"?>
<svg
   width="1200pt"
   height="1200pt"
   version="1.1"
   viewBox="0 0 1200 1200"
   id="svg922"
   sodipodi:docname="checkbox.svg"
   inkscape:version="1.1.2 (0a00cf5339, 2022-02-04)"
   xmlns:inkscape="http://www.inkscape.org/namespaces/inkscape"
   xmlns:sodipodi="http://sodipodi.sourceforge.net/DTD/sodipodi-0.dtd"
   xmlns="http://www.w3.org/2000/svg"
   xmlns:svg="http://www.w3.org/2000/svg">
  <defs
     id="defs926" />
  <sodipodi:namedview
     id="namedview924"
     pagecolor="#ffffff"
     bordercolor="#666666"
     borderopacity="1.0"
     inkscape:pageshadow="2"
     inkscape:pageopacity="0.0"
     inkscape:pagecheckerboard="0"
     inkscape:document-units="pt"
     showgrid="false"
     inkscape:zoom="0.32125"
     inkscape:cx="978.98833"
     inkscape:cy="868.48249"
     inkscape:window-width="1366"
     inkscape:window-height="744"
     inkscape:window-x="0"
     inkscape:window-y="0"
     inkscape:window-maximized="1"
     inkscape:current-layer="layer2" />
  <g
     inkscape:groupmode="layer"
     id="layer1"
     inkscape:label="Layer 1">
    <rect
       style="fill:#b149ff;fill-opacity:0.83657736;stroke-width:0.759638"
       id="rect1396"
       width="1215.7406"
       height="1223.7452"
       x="-4.9108553"
       y="-3.4209101"
       ry="0" />
  </g>
  <g
     inkscape:groupmode="layer"
     id="layer2"
     inkscape:label="Layer 2">
    <g
       id="g920"
       transform="matrix(0.79484242,0,0,0.77380543,115.01157,177.00621)">
      <path
         d="m 1181.2,918.75 h -273 c -6.6992,0 -12.887,-3.5742 -16.238,-9.375 -3.3477,-5.8008 -3.3477,-12.949 0,-18.75 3.3516,-5.8008 9.5391,-9.375 16.238,-9.375 h 254.25 V 37.5 H 318.7 v 253.12 c 0,6.6992 -3.5742,12.887 -9.375,16.238 -5.8008,3.3477 -12.949,3.3477 -18.75,0 -5.8008,-3.3516 -9.375,-9.5391 -9.375,-16.238 V 18.74 c 0,-4.9727 1.9766,-9.7422 5.4922,-13.258 3.5156,-3.5156 8.2852,-5.4922 13.258,-5.4922 h 881.25 c 4.9727,0 9.7422,1.9766 13.258,5.4922 3.5156,3.5156 5.4922,8.2852 5.4922,13.258 v 881.25 c 0,4.9727 -1.9766,9.7422 -5.4922,13.258 -3.5156,3.5156 -8.2852,5.4922 -13.258,5.4922 z"
         id="path914"
         style="fill:#ffffff" />
      <path
         d="M 900,1200 H 18.75 c -4.9727,0 -9.7422,-1.9766 -13.258,-5.4922 -3.5156,-3.5156 -5.4922,-8.2852 -5.4922,-13.258 v -881.25 c 0,-4.9727 1.9766,-9.7422 5.4922,-13.258 3.5156,-3.5156 8.2852,-5.4922 13.258,-5.4922 H 900 c 4.9727,0 9.7422,1.9766 13.258,5.4922 3.5156,3.5156 5.4922,8.2852 5.4922,13.258 v 881.25 c 0,4.9727 -1.9766,9.7422 -5.4922,13.258 C 909.7424,1198.0234 904.9728,1200 900,1200 Z M 37.5,1162.5 H 881.25 V 318.75 H 37.5 Z"
         id="path916"
         style="fill:#ffffff" />
      <path
         d="m 409.78,954.19 c -4.9531,0.004 -9.7031,-1.9492 -13.219,-5.4375 l -278.53,-278.62 c -3.9688,-3.3984 -6.3398,-8.2969 -6.5391,-13.52 -0.20313,-5.2188 1.7812,-10.285 5.4766,-13.98 3.6954,-3.695 8.7617,-5.6797 13.98,-5.4766 5.2227,0.19922 10.121,2.5703 13.52,6.5391 l 265.31,265.69 355.12,-355.41 c 4.8281,-4.1328 11.418,-5.543 17.512,-3.7383 6.0977,1.8008 10.863,6.5664 12.664,12.664 1.8047,6.0938 0.39453,12.684 -3.7383,17.512 l -368.25,368.34 c -3.5391,3.5078 -8.3281,5.4648 -13.312,5.4375 z"
         id="path918"
         style="fill:#ffffff" />
    </g>
  </g>
</svg>
